<svg width="400" height="300" viewBox="0 0 400 300" fill="none" xmlns="http://www.w3.org/2000/svg">
<g filter="url(#filter0_d_1_59)">
<mask id="mask0_1_59" style="mask-type:alpha" maskUnits="userSpaceOnUse" x="118" y="71" width="197" height="159">
<ellipse cx="216.5" cy="150.5" rx="98.5" ry="79.5" fill="white"/>
</mask>
<g mask="url(#mask0_1_59)">
<path d="M207.13 132.38C201.71 132.38 196.38 131.85 191.91 130.16C187.12 128.34 186.68 124.88 186.17 120.87C186.09 120.203 186 119.537 185.9 118.87C185.155 114.035 184.694 109.159 184.52 104.27C184.34 99.1 184.46 93.06 186.7 87.59C189.55 80.59 194.87 76.68 201.4 76.68H201.71C201.93 67.37 207.64 58 218.55 57.42C228.14 56.92 235.55 62.51 241.47 67C246.05 70.47 250.01 73.46 253.66 72.94C262.21 71.72 264.66 68.03 264.66 67.99C264.751 67.8444 264.878 67.7247 265.028 67.6424C265.179 67.5601 265.348 67.518 265.52 67.52C265.694 67.52 265.864 67.5652 266.015 67.6511C266.166 67.7371 266.291 67.8607 266.38 68.01C266.43 68.1 271.44 76.93 265.62 86.01C266.862 86.0662 268.065 86.4603 269.1 87.15C271.1 88.55 272.35 91.07 272.67 94.66C273.56 104.38 267.99 129.28 267.75 130.34C267.692 130.59 267.541 130.808 267.327 130.95C267.113 131.091 266.853 131.145 266.6 131.1L260 130C258.048 129.783 256.076 129.81 254.13 130.08C253.13 130.18 252.13 130.27 251.13 130.3L230.52 130.94C227.95 131.02 224.93 131.29 221.74 131.57C217.23 131.93 212.14 132.38 207.13 132.38ZM192.62 128.29C200.8 131.39 212.33 130.36 221.62 129.53C224.84 129.24 227.89 128.97 230.52 128.89L251.13 128.25C252 128.25 252.95 128.13 253.95 128.04C256.072 127.746 258.223 127.726 260.35 127.98C260.7 127.98 261.84 128.23 266 128.98C267 124.3 271.44 103.23 270.68 94.85C270.41 91.85 269.51 89.85 267.99 88.85C267.372 88.4674 266.684 88.2119 265.967 88.0986C265.249 87.9852 264.516 88.0163 263.81 88.19C263.605 88.2487 263.387 88.2405 263.188 88.1668C262.988 88.0931 262.817 87.9576 262.7 87.78C262.583 87.6025 262.526 87.3924 262.537 87.1802C262.548 86.968 262.626 86.7648 262.76 86.6C264.634 84.387 265.859 81.6988 266.301 78.8326C266.742 75.9665 266.382 73.0342 265.26 70.36C263.73 71.8 260.4 74.05 253.97 74.97C249.49 75.6 245.22 72.38 240.28 68.65C234.28 64.12 227.53 59 218.68 59.47C208.62 60 203.54 69.08 203.73 77.76C203.732 77.9005 203.705 78.0399 203.65 78.1691C203.595 78.2983 203.513 78.4145 203.41 78.51C203.308 78.6066 203.186 78.6806 203.054 78.7271C202.921 78.7736 202.78 78.7917 202.64 78.78C196.4 78.26 191.27 81.78 188.57 88.39C186.48 93.52 186.37 99.29 186.57 104.25C186.739 109.059 187.189 113.854 187.92 118.61C188.03 119.32 188.12 119.99 188.2 120.61C188.68 124.39 189 126.89 192.67 128.28L192.62 128.29Z" fill="#093F68"/>
<path d="M220.28 162.2H237.7C244.262 162.211 250.647 164.324 255.92 168.229C261.193 172.135 265.076 177.627 267 183.9L276.41 214.59C276.748 215.686 276.824 216.846 276.632 217.977C276.44 219.108 275.985 220.178 275.304 221.101C274.623 222.024 273.735 222.775 272.712 223.292C271.688 223.809 270.557 224.079 269.41 224.08H188.51C187.363 224.079 186.232 223.809 185.208 223.292C184.185 222.775 183.297 222.024 182.616 221.101C181.935 220.178 181.48 219.108 181.288 217.977C181.096 216.846 181.172 215.686 181.51 214.59L190.92 183.9C192.847 177.617 196.739 172.118 202.024 168.211C207.309 164.305 213.708 162.198 220.28 162.2Z" fill="#68E1FD"/>
<path d="M269.44 225.08H188.54C187.234 225.084 185.945 224.781 184.778 224.196C183.61 223.61 182.596 222.759 181.818 221.71C181.039 220.661 180.518 219.444 180.296 218.157C180.074 216.87 180.158 215.549 180.54 214.3L190 183.61C191.965 177.111 195.976 171.419 201.435 167.382C206.894 163.344 213.51 161.176 220.3 161.2H237.7C244.49 161.176 251.106 163.344 256.565 167.382C262.024 171.419 266.035 177.111 268 183.61L277.41 214.3C277.792 215.549 277.876 216.87 277.654 218.157C277.432 219.444 276.911 220.661 276.132 221.71C275.354 222.759 274.34 223.61 273.172 224.196C272.005 224.781 270.716 225.084 269.41 225.08H269.44ZM220.28 163.2C213.918 163.178 207.718 165.209 202.603 168.993C197.488 172.776 193.731 178.11 191.89 184.2L182.48 214.89C182.191 215.838 182.128 216.84 182.297 217.817C182.465 218.793 182.859 219.717 183.448 220.514C184.037 221.311 184.804 221.959 185.688 222.406C186.572 222.854 187.549 223.088 188.54 223.09H269.44C270.431 223.088 271.408 222.854 272.292 222.406C273.176 221.959 273.943 221.311 274.532 220.514C275.121 219.717 275.515 218.793 275.683 217.817C275.852 216.84 275.789 215.838 275.5 214.89L266.09 184.2C264.249 178.11 260.492 172.776 255.377 168.993C250.262 165.209 244.062 163.178 237.7 163.2H220.28Z" fill="#093F68"/>
<path d="M223.67 158.74H234.31V164.86C234.31 165.454 234.193 166.041 233.966 166.59C233.739 167.138 233.406 167.636 232.986 168.056C232.566 168.476 232.068 168.809 231.52 169.036C230.971 169.263 230.384 169.38 229.79 169.38H228.18C226.981 169.38 225.832 168.904 224.984 168.056C224.136 167.208 223.66 166.059 223.66 164.86V158.74H223.67Z" fill="#FFC9B0"/>
<path d="M229.79 170.37H228.19C226.728 170.37 225.325 169.79 224.29 168.757C223.255 167.724 222.673 166.322 222.67 164.86V158.74C222.67 158.475 222.775 158.22 222.963 158.033C223.15 157.845 223.405 157.74 223.67 157.74H234.31C234.575 157.74 234.83 157.845 235.017 158.033C235.205 158.22 235.31 158.475 235.31 158.74V164.86C235.307 166.322 234.725 167.724 233.69 168.757C232.655 169.79 231.252 170.37 229.79 170.37ZM224.67 159.74V164.86C224.673 165.792 225.045 166.685 225.705 167.343C226.364 168.001 227.258 168.37 228.19 168.37H229.79C230.722 168.37 231.616 168.001 232.275 167.343C232.935 166.685 233.307 165.792 233.31 164.86V159.74H224.67Z" fill="#093F68"/>
<path d="M192.27 129.23C187.33 127.36 187.63 123.58 186.89 118.74C186.149 113.944 185.691 109.109 185.52 104.26C185.33 98.75 185.52 93.09 187.62 87.98C190.31 81.41 195.62 77.17 202.71 77.75C202.5 68.07 208.31 58.99 218.6 58.44C235.09 57.56 244.6 75.27 253.81 73.95C263.02 72.63 265.49 68.53 265.49 68.53C267.037 71.4917 267.673 74.8453 267.317 78.1679C266.962 81.4905 265.63 84.6333 263.49 87.2C263.49 87.2 270.76 85.08 271.64 94.75C272.52 104.42 266.73 130.12 266.73 130.12L260.16 129C257.39 128.51 253.93 129.19 251.16 129.28L230.55 129.92C220.21 130.21 203.49 133.47 192.27 129.23Z" fill="#725858"/>
<path d="M198.59 140.01C204.295 140.01 208.92 136.025 208.92 131.11C208.92 126.195 204.295 122.21 198.59 122.21C192.885 122.21 188.26 126.195 188.26 131.11C188.26 136.025 192.885 140.01 198.59 140.01Z" fill="#FFC9B0"/>
<path d="M258.84 140.01C264.545 140.01 269.17 136.025 269.17 131.11C269.17 126.195 264.545 122.21 258.84 122.21C253.135 122.21 248.51 126.195 248.51 131.11C248.51 136.025 253.135 140.01 258.84 140.01Z" fill="#FFC9B0"/>
<path d="M258.84 141C252.59 141 247.5 136.56 247.5 131.1C247.5 125.64 252.59 121.19 258.84 121.19C265.09 121.19 270.17 125.64 270.17 131.1C270.17 136.56 265.09 141 258.84 141ZM258.84 123.19C253.69 123.19 249.5 126.74 249.5 131.1C249.5 135.46 253.69 139 258.84 139C263.99 139 268.17 135.46 268.17 131.1C268.17 126.74 264 123.2 258.84 123.2V123.19Z" fill="#093F68"/>
<path d="M229 160.13C220.738 160.133 212.814 156.855 206.967 151.018C201.121 145.181 197.831 137.262 197.82 129V106.34C199.64 109.34 205.69 108.14 214.56 92.93C247.76 109.75 260.16 100.11 260.16 100.11V129C260.149 137.258 256.862 145.175 251.02 151.011C245.178 156.848 237.258 160.127 229 160.13Z" fill="#FFC9B0"/>
<path d="M229 161.13C220.476 161.125 212.301 157.74 206.269 151.717C200.236 145.694 196.839 137.524 196.82 129V106.34C196.818 106.12 196.888 105.906 197.02 105.73C197.152 105.554 197.339 105.426 197.551 105.367C197.763 105.308 197.988 105.32 198.192 105.402C198.396 105.484 198.568 105.631 198.68 105.82C198.833 106.086 199.057 106.305 199.327 106.452C199.598 106.598 199.903 106.667 200.21 106.65C201.43 106.65 206.01 105.58 213.68 92.42C213.803 92.1931 214.009 92.0227 214.256 91.9444C214.502 91.8662 214.768 91.8861 215 92C247.08 108.25 259.42 99.37 259.54 99.28C259.689 99.1657 259.866 99.0954 260.053 99.0771C260.239 99.0589 260.427 99.0934 260.595 99.1769C260.763 99.2603 260.904 99.3892 261.002 99.5488C261.1 99.7085 261.151 99.8926 261.15 100.08V129C261.131 137.519 257.738 145.684 251.712 151.706C245.686 157.728 237.519 161.117 229 161.13ZM198.83 108.41V129C198.83 137.002 202.009 144.675 207.667 150.333C213.325 155.991 220.998 159.17 229 159.17C237.002 159.17 244.675 155.991 250.333 150.333C255.991 144.675 259.17 137.002 259.17 129V101.83C254.85 103.83 241.58 107.51 214.96 94.24C209.44 103.51 204.23 108.62 200.26 108.65C199.768 108.674 199.277 108.592 198.82 108.41H198.83Z" fill="#093F68"/>
<path d="M249 216.72C248.735 216.72 248.48 216.615 248.293 216.427C248.105 216.24 248 215.985 248 215.72V179.14C248 178.875 248.105 178.62 248.293 178.433C248.48 178.245 248.735 178.14 249 178.14C249.265 178.14 249.52 178.245 249.707 178.433C249.895 178.62 250 178.875 250 179.14V215.72C250 215.985 249.895 216.24 249.707 216.427C249.52 216.615 249.265 216.72 249 216.72Z" fill="#093F68"/>
<path d="M209 216.72C208.735 216.72 208.48 216.615 208.293 216.427C208.105 216.24 208 215.985 208 215.72V179.14C208 178.875 208.105 178.62 208.293 178.433C208.48 178.245 208.735 178.14 209 178.14C209.265 178.14 209.52 178.245 209.707 178.433C209.895 178.62 210 178.875 210 179.14V215.72C210 215.985 209.895 216.24 209.707 216.427C209.52 216.615 209.265 216.72 209 216.72Z" fill="#093F68"/>
<path d="M228.92 134.69C227.872 134.683 226.825 134.596 225.79 134.43C225.525 134.384 225.289 134.234 225.134 134.013C224.979 133.793 224.919 133.52 224.965 133.255C225.011 132.99 225.161 132.754 225.382 132.599C225.602 132.444 225.875 132.384 226.14 132.43C227.714 132.678 229.316 132.678 230.89 132.43C231.09 131.51 229.89 128.08 228.19 124.85C228.131 124.731 228.097 124.601 228.089 124.468C228.081 124.336 228.099 124.203 228.143 124.077C228.187 123.952 228.256 123.837 228.345 123.738C228.434 123.639 228.542 123.559 228.662 123.503C228.782 123.446 228.913 123.414 229.045 123.409C229.178 123.403 229.311 123.424 229.435 123.471C229.56 123.517 229.674 123.588 229.771 123.678C229.868 123.769 229.946 123.879 230 124C231.12 126.15 233.63 131.37 232.71 133.42C232.607 133.665 232.449 133.883 232.247 134.056C232.046 134.23 231.807 134.354 231.55 134.42C230.688 134.618 229.804 134.709 228.92 134.69Z" fill="#093F68"/>
<path d="M222 110.73H206.72C206.19 110.73 205.681 110.519 205.306 110.144C204.931 109.769 204.72 109.26 204.72 108.73C204.72 108.2 204.931 107.691 205.306 107.316C205.681 106.941 206.19 106.73 206.72 106.73H222.01C222.54 106.73 223.049 106.941 223.424 107.316C223.799 107.691 224.01 108.2 224.01 108.73C224.01 109.26 223.799 109.769 223.424 110.144C223.049 110.519 222.54 110.73 222.01 110.73H222Z" fill="#093F68"/>
<path d="M250.25 110.73H234.97C234.44 110.73 233.931 110.519 233.556 110.144C233.181 109.769 232.97 109.26 232.97 108.73C232.97 108.2 233.181 107.691 233.556 107.316C233.931 106.941 234.44 106.73 234.97 106.73H250.25C250.78 106.73 251.289 106.941 251.664 107.316C252.039 107.691 252.25 108.2 252.25 108.73C252.25 109.26 252.039 109.769 251.664 110.144C251.289 110.519 250.78 110.73 250.25 110.73Z" fill="#093F68"/>
<path d="M205.39 116.21H223.39C224.069 116.21 224.72 116.48 225.2 116.96C225.68 117.44 225.95 118.091 225.95 118.77V120.44C225.95 122.729 225.041 124.924 223.422 126.542C221.804 128.161 219.609 129.07 217.32 129.07H211.45C209.161 129.07 206.966 128.161 205.348 126.542C203.729 124.924 202.82 122.729 202.82 120.44V118.77C202.82 118.433 202.887 118.099 203.016 117.788C203.145 117.477 203.335 117.194 203.573 116.956C203.812 116.718 204.096 116.53 204.407 116.402C204.719 116.274 205.053 116.209 205.39 116.21Z" fill="white"/>
<path d="M217.33 130.08H211.47C208.917 130.077 206.469 129.062 204.663 127.257C202.858 125.451 201.843 123.003 201.84 120.45V118.77C201.84 117.828 202.214 116.924 202.879 116.256C203.545 115.589 204.448 115.213 205.39 115.21H223.39C224.333 115.213 225.237 115.589 225.904 116.256C226.571 116.923 226.947 117.827 226.95 118.77V120.45C226.947 123.001 225.933 125.448 224.13 127.253C222.327 129.058 219.882 130.075 217.33 130.08ZM205.39 117.21C205.186 117.21 204.983 117.25 204.795 117.329C204.606 117.407 204.435 117.523 204.29 117.668C204.146 117.812 204.032 117.985 203.955 118.174C203.878 118.363 203.839 118.566 203.84 118.77V120.45C203.843 122.473 204.647 124.412 206.078 125.842C207.508 127.273 209.447 128.077 211.47 128.08H217.33C219.354 128.077 221.294 127.273 222.726 125.843C224.158 124.413 224.965 122.474 224.97 120.45V118.77C224.97 118.356 224.806 117.959 224.513 117.667C224.221 117.374 223.824 117.21 223.41 117.21H205.39Z" fill="#093F68"/>
<path d="M234.45 116.21H252.45C253.129 116.21 253.78 116.48 254.26 116.96C254.74 117.44 255.01 118.091 255.01 118.77V120.44C255.01 122.729 254.101 124.924 252.482 126.542C250.864 128.161 248.669 129.07 246.38 129.07H240.51C238.221 129.07 236.026 128.161 234.408 126.542C232.789 124.924 231.88 122.729 231.88 120.44V118.77C231.88 118.433 231.947 118.099 232.076 117.788C232.205 117.477 232.395 117.194 232.633 116.956C232.872 116.718 233.156 116.53 233.467 116.402C233.779 116.274 234.113 116.209 234.45 116.21Z" fill="white"/>
<path d="M246.39 130.08H240.53C237.975 130.08 235.525 129.066 233.717 127.26C231.909 125.454 230.893 123.005 230.89 120.45V118.77C230.893 117.827 231.269 116.923 231.936 116.256C232.603 115.589 233.507 115.213 234.45 115.21H252.45C253.392 115.213 254.295 115.589 254.961 116.256C255.626 116.924 256 117.828 256 118.77V120.45C255.997 123 254.985 125.445 253.184 127.249C251.383 129.054 248.94 130.072 246.39 130.08ZM234.45 117.21C234.036 117.21 233.639 117.374 233.347 117.667C233.054 117.959 232.89 118.356 232.89 118.77V120.45C232.895 122.474 233.702 124.413 235.134 125.843C236.566 127.273 238.506 128.077 240.53 128.08H246.39C248.413 128.077 250.352 127.273 251.782 125.842C253.213 124.412 254.017 122.473 254.02 120.45V118.77C254.021 118.566 253.982 118.363 253.905 118.174C253.828 117.985 253.714 117.812 253.57 117.668C253.426 117.523 253.254 117.407 253.065 117.329C252.877 117.25 252.674 117.21 252.47 117.21H234.45Z" fill="#093F68"/>
<path d="M202.84 121.45H197C196.735 121.45 196.48 121.345 196.293 121.157C196.105 120.97 196 120.715 196 120.45C196 120.185 196.105 119.93 196.293 119.743C196.48 119.555 196.735 119.45 197 119.45H202.81C203.075 119.45 203.33 119.555 203.517 119.743C203.705 119.93 203.81 120.185 203.81 120.45C203.81 120.715 203.705 120.97 203.517 121.157C203.33 121.345 203.075 121.45 202.81 121.45H202.84Z" fill="#093F68"/>
<path d="M261.12 121.45H255.32C255.055 121.45 254.8 121.345 254.613 121.157C254.425 120.97 254.32 120.715 254.32 120.45C254.32 120.185 254.425 119.93 254.613 119.743C254.8 119.555 255.055 119.45 255.32 119.45H261.12C261.385 119.45 261.64 119.555 261.827 119.743C262.015 119.93 262.12 120.185 262.12 120.45C262.12 120.715 262.015 120.97 261.827 121.157C261.64 121.345 261.385 121.45 261.12 121.45Z" fill="#093F68"/>
<path d="M231.89 121.45H226C225.735 121.45 225.48 121.345 225.293 121.157C225.105 120.97 225 120.715 225 120.45C225 120.185 225.105 119.93 225.293 119.743C225.48 119.555 225.735 119.45 226 119.45H231.92C232.185 119.45 232.44 119.555 232.627 119.743C232.815 119.93 232.92 120.185 232.92 120.45C232.92 120.715 232.815 120.97 232.627 121.157C232.44 121.345 232.185 121.45 231.92 121.45H231.89Z" fill="#093F68"/>
<path d="M228.33 144.33C224.762 144.344 221.222 143.696 217.89 142.42C217.642 142.325 217.442 142.134 217.334 141.892C217.226 141.649 217.22 141.373 217.315 141.125C217.41 140.877 217.601 140.677 217.843 140.569C218.086 140.461 218.362 140.455 218.61 140.55C225 142.846 231.99 142.846 238.38 140.55C238.501 140.499 238.632 140.473 238.763 140.473C238.895 140.473 239.025 140.499 239.147 140.549C239.268 140.599 239.379 140.672 239.472 140.765C239.565 140.858 239.639 140.969 239.69 141.09C239.741 141.211 239.767 141.342 239.767 141.473C239.767 141.605 239.741 141.735 239.691 141.857C239.641 141.978 239.568 142.089 239.475 142.182C239.382 142.275 239.271 142.349 239.15 142.4C235.69 143.692 232.024 144.346 228.33 144.33Z" fill="#093F68"/>
<path d="M256.41 208.32C256.176 208.325 255.948 208.247 255.765 208.101C255.582 207.955 255.457 207.749 255.41 207.52C255.384 207.391 255.383 207.259 255.408 207.13C255.433 207.001 255.483 206.878 255.556 206.768C255.628 206.659 255.721 206.565 255.83 206.491C255.939 206.418 256.061 206.366 256.19 206.34L267.25 204.08C267.515 204.027 267.791 204.081 268.016 204.231C268.241 204.382 268.397 204.615 268.45 204.88C268.503 205.145 268.449 205.421 268.299 205.646C268.148 205.871 267.915 206.027 267.65 206.08L256.59 208.33C256.53 208.335 256.469 208.332 256.41 208.32Z" fill="#093F68"/>
<path d="M201.57 208.32C201.504 208.33 201.436 208.33 201.37 208.32L190.31 206C190.179 205.974 190.054 205.922 189.943 205.847C189.831 205.773 189.736 205.677 189.661 205.566C189.587 205.454 189.536 205.329 189.51 205.198C189.484 205.067 189.484 204.931 189.51 204.8C189.536 204.669 189.588 204.544 189.663 204.433C189.737 204.321 189.833 204.226 189.944 204.151C190.056 204.077 190.181 204.026 190.312 204C190.443 203.974 190.579 203.974 190.71 204L201.77 206.26C201.899 206.286 202.021 206.338 202.13 206.411C202.239 206.485 202.332 206.579 202.404 206.688C202.477 206.798 202.527 206.921 202.552 207.05C202.577 207.179 202.576 207.311 202.55 207.44C202.521 207.68 202.406 207.902 202.225 208.064C202.045 208.226 201.812 208.317 201.57 208.32Z" fill="#093F68"/>
<path d="M200.76 187.36H257.1C258.368 187.36 259.584 187.864 260.48 188.76C261.376 189.656 261.88 190.872 261.88 192.14V225H196V192.14C196 190.876 196.501 189.663 197.393 188.767C198.285 187.871 199.496 187.365 200.76 187.36Z" fill="#F56132"/>
<path d="M261.88 226H196C195.735 226 195.48 225.895 195.293 225.707C195.105 225.52 195 225.265 195 225V192.14C195 190.607 195.609 189.137 196.693 188.053C197.777 186.969 199.247 186.36 200.78 186.36H257.1C258.633 186.36 260.103 186.969 261.187 188.053C262.271 189.137 262.88 190.607 262.88 192.14V225C262.88 225.265 262.775 225.52 262.587 225.707C262.4 225.895 262.145 226 261.88 226ZM197 224H260.9V192.14C260.897 191.138 260.498 190.178 259.79 189.47C259.082 188.762 258.122 188.363 257.12 188.36H200.76C199.758 188.363 198.798 188.762 198.09 189.47C197.382 190.178 196.983 191.138 196.98 192.14L197 224Z" fill="#093F68"/>
<path d="M192.78 225H265.09C265.09 226.278 264.582 227.504 263.678 228.408C262.774 229.312 261.548 229.82 260.27 229.82H197.6C196.322 229.82 195.096 229.312 194.192 228.408C193.288 227.504 192.78 226.278 192.78 225Z" fill="#F56132"/>
<path d="M260.26 230.84H197.6C196.057 230.837 194.578 230.223 193.488 229.132C192.397 228.042 191.783 226.563 191.78 225.02C191.78 224.755 191.885 224.5 192.073 224.313C192.26 224.125 192.515 224.02 192.78 224.02H265.08C265.345 224.02 265.6 224.125 265.787 224.313C265.975 224.5 266.08 224.755 266.08 225.02C266.077 226.563 265.463 228.042 264.372 229.132C263.282 230.223 261.803 230.837 260.26 230.84ZM193.91 226C194.131 226.809 194.612 227.524 195.279 228.033C195.945 228.543 196.761 228.819 197.6 228.82H260.26C261.108 228.83 261.935 228.559 262.611 228.048C263.288 227.538 263.777 226.818 264 226H193.91Z" fill="#093F68"/>
<path d="M228.19 188.36C227.925 188.36 227.67 188.255 227.483 188.067C227.295 187.88 227.19 187.625 227.19 187.36V169.36C227.19 169.095 227.295 168.84 227.483 168.653C227.67 168.465 227.925 168.36 228.19 168.36C228.455 168.36 228.71 168.465 228.897 168.653C229.085 168.84 229.19 169.095 229.19 169.36V187.36C229.19 187.625 229.085 187.88 228.897 188.067C228.71 188.255 228.455 188.36 228.19 188.36Z" fill="#093F68"/>
<path d="M133.36 200.91H161.36V220.65C161.36 223.087 160.392 225.425 158.668 227.148C156.945 228.872 154.607 229.84 152.17 229.84H142.55C140.113 229.84 137.775 228.872 136.052 227.148C134.328 225.425 133.36 223.087 133.36 220.65V200.91Z" fill="#FFBC0E"/>
<path d="M152.17 230.84H142.55C139.848 230.837 137.258 229.763 135.348 227.852C133.437 225.942 132.363 223.352 132.36 220.65V200.91C132.36 200.645 132.465 200.39 132.653 200.203C132.84 200.015 133.095 199.91 133.36 199.91H161.36C161.625 199.91 161.88 200.015 162.067 200.203C162.255 200.39 162.36 200.645 162.36 200.91V220.65C162.357 223.352 161.283 225.942 159.372 227.852C157.462 229.763 154.872 230.837 152.17 230.84ZM134.36 201.91V220.65C134.36 222.822 135.223 224.905 136.759 226.441C138.295 227.977 140.378 228.84 142.55 228.84H152.17C154.341 228.837 156.423 227.974 157.958 226.438C159.494 224.903 160.357 222.821 160.36 220.65V201.91H134.36Z" fill="#093F68"/>
<path d="M283.61 229.84H116.39C113.143 229.84 110.51 232.47 110.51 235.715C110.51 238.96 113.143 241.59 116.39 241.59H283.61C286.857 241.59 289.49 238.96 289.49 235.715C289.49 232.47 286.857 229.84 283.61 229.84Z" fill="#725858"/>
<path d="M283.61 242.59H116.39C115.465 242.625 114.543 242.474 113.678 242.144C112.813 241.814 112.023 241.314 111.356 240.672C110.69 240.03 110.159 239.26 109.797 238.408C109.435 237.557 109.248 236.641 109.248 235.715C109.248 234.789 109.435 233.873 109.797 233.022C110.159 232.17 110.69 231.4 111.356 230.758C112.023 230.116 112.813 229.616 113.678 229.286C114.543 228.956 115.465 228.805 116.39 228.84H283.61C284.535 228.805 285.457 228.956 286.322 229.286C287.187 229.616 287.977 230.116 288.644 230.758C289.31 231.4 289.841 232.17 290.203 233.022C290.565 233.873 290.752 234.789 290.752 235.715C290.752 236.641 290.565 237.557 290.203 238.408C289.841 239.26 289.31 240.03 288.644 240.672C287.977 241.314 287.187 241.814 286.322 242.144C285.457 242.474 284.535 242.625 283.61 242.59ZM116.39 230.84C115.731 230.81 115.073 230.914 114.456 231.146C113.838 231.377 113.274 231.731 112.797 232.187C112.321 232.643 111.941 233.19 111.682 233.797C111.423 234.403 111.289 235.056 111.289 235.715C111.289 236.374 111.423 237.027 111.682 237.633C111.941 238.24 112.321 238.787 112.797 239.243C113.274 239.699 113.838 240.053 114.456 240.284C115.073 240.516 115.731 240.62 116.39 240.59H283.61C284.269 240.62 284.927 240.516 285.544 240.284C286.162 240.053 286.726 239.699 287.203 239.243C287.679 238.787 288.059 238.24 288.318 237.633C288.577 237.027 288.711 236.374 288.711 235.715C288.711 235.056 288.577 234.403 288.318 233.797C288.059 233.19 287.679 232.643 287.203 232.187C286.726 231.731 286.162 231.377 285.544 231.146C284.927 230.914 284.269 230.81 283.61 230.84H116.39Z" fill="#093F68"/>
<path d="M163 221H161.37C161.105 221 160.85 220.895 160.663 220.707C160.475 220.52 160.37 220.265 160.37 220V204.13C160.37 203.865 160.475 203.61 160.663 203.423C160.85 203.235 161.105 203.13 161.37 203.13H163C164.264 202.977 165.546 203.094 166.761 203.474C167.976 203.853 169.097 204.486 170.05 205.33C171.002 206.175 171.765 207.212 172.287 208.372C172.81 209.533 173.08 210.792 173.08 212.065C173.08 213.338 172.81 214.597 172.287 215.758C171.765 216.918 171.002 217.955 170.05 218.8C169.097 219.644 167.976 220.277 166.761 220.656C165.546 221.036 164.264 221.153 163 221ZM162.37 219H163C163.98 219.112 164.972 219.015 165.912 218.716C166.852 218.418 167.718 217.924 168.454 217.267C169.189 216.611 169.778 215.806 170.181 214.906C170.584 214.006 170.792 213.031 170.792 212.045C170.792 211.059 170.584 210.084 170.181 209.184C169.778 208.284 169.189 207.479 168.454 206.823C167.718 206.166 166.852 205.672 165.912 205.374C164.972 205.075 163.98 204.978 163 205.09H162.37V219Z" fill="#093F68"/>
<path d="M175 112.98H115.72C114.339 112.98 113.22 114.099 113.22 115.48V164.55C113.22 165.931 114.339 167.05 115.72 167.05H175C176.381 167.05 177.5 165.931 177.5 164.55V115.48C177.5 114.099 176.381 112.98 175 112.98Z" fill="white"/>
<path d="M175 168.05H115.71C114.783 168.047 113.896 167.677 113.242 167.021C112.587 166.365 112.22 165.477 112.22 164.55V115.47C112.22 114.544 112.588 113.657 113.242 113.002C113.897 112.348 114.784 111.98 115.71 111.98H175C175.927 111.98 176.815 112.347 177.471 113.002C178.127 113.656 178.497 114.543 178.5 115.47V164.55C178.5 165.478 178.131 166.369 177.475 167.025C176.818 167.681 175.928 168.05 175 168.05ZM115.71 114C115.315 114 114.936 114.157 114.656 114.436C114.377 114.716 114.22 115.095 114.22 115.49V164.57C114.22 164.966 114.377 165.346 114.656 165.627C114.935 165.908 115.314 166.067 115.71 166.07H175C175.398 166.07 175.779 165.912 176.061 165.631C176.342 165.349 176.5 164.968 176.5 164.57V115.47C176.492 115.077 176.331 114.704 176.05 114.429C175.77 114.154 175.393 114 175 114H115.71Z" fill="#093F68"/>
<path d="M115.71 113H175C175.663 113 176.299 113.263 176.768 113.732C177.237 114.201 177.5 114.837 177.5 115.5V119.83H113.22V115.5C113.22 114.839 113.482 114.204 113.949 113.736C114.415 113.267 115.049 113.003 115.71 113Z" fill="#68E1FD"/>
<path d="M177.5 120.81H113.22C112.955 120.81 112.7 120.705 112.513 120.517C112.325 120.33 112.22 120.075 112.22 119.81V115.47C112.22 114.544 112.588 113.657 113.242 113.002C113.897 112.348 114.784 111.98 115.71 111.98H175C175.927 111.98 176.815 112.347 177.471 113.002C178.127 113.656 178.497 114.543 178.5 115.47V119.81C178.5 120.075 178.395 120.33 178.207 120.517C178.02 120.705 177.765 120.81 177.5 120.81ZM114.22 118.81H176.5V115.47C176.492 115.077 176.331 114.704 176.05 114.429C175.77 114.154 175.393 114 175 114H115.71C115.315 114 114.936 114.157 114.656 114.436C114.377 114.716 114.22 115.095 114.22 115.49V118.81Z" fill="#093F68"/>
<path d="M118.21 117.73C118.95 117.73 119.55 117.13 119.55 116.39C119.55 115.65 118.95 115.05 118.21 115.05C117.47 115.05 116.87 115.65 116.87 116.39C116.87 117.13 117.47 117.73 118.21 117.73Z" fill="#093F68"/>
<path d="M121.96 117.73C122.7 117.73 123.3 117.13 123.3 116.39C123.3 115.65 122.7 115.05 121.96 115.05C121.22 115.05 120.62 115.65 120.62 116.39C120.62 117.13 121.22 117.73 121.96 117.73Z" fill="#093F68"/>
<path d="M125.72 117.73C126.46 117.73 127.06 117.13 127.06 116.39C127.06 115.65 126.46 115.05 125.72 115.05C124.98 115.05 124.38 115.65 124.38 116.39C124.38 117.13 124.98 117.73 125.72 117.73Z" fill="#093F68"/>
<path d="M137.09 138.65L127.84 142.87V142.94L137.09 147.16V151.78L122.32 145.05V140.76L137.09 134V138.65Z" fill="#093F68"/>
<path d="M148.06 127.33L151.38 128.52L142.63 155L139.33 153.81L148.06 127.33Z" fill="#093F68"/>
<path d="M153.63 147.16L162.88 142.94V142.87L153.63 138.65V134L168.39 140.73V145.02L153.63 151.75V147.16Z" fill="#093F68"/>
</g>
</g>
<defs>
<filter id="filter0_d_1_59" x="-4" y="0" width="408" height="308" filterUnits="userSpaceOnUse" color-interpolation-filters="sRGB">
<feFlood flood-opacity="0" result="BackgroundImageFix"/>
<feColorMatrix in="SourceAlpha" type="matrix" values="0 0 0 0 0 0 0 0 0 0 0 0 0 0 0 0 0 0 127 0" result="hardAlpha"/>
<feOffset dy="4"/>
<feGaussianBlur stdDeviation="2"/>
<feComposite in2="hardAlpha" operator="out"/>
<feColorMatrix type="matrix" values="0 0 0 0 0 0 0 0 0 0 0 0 0 0 0 0 0 0 0.25 0"/>
<feBlend mode="normal" in2="BackgroundImageFix" result="effect1_dropShadow_1_59"/>
<feBlend mode="normal" in="SourceGraphic" in2="effect1_dropShadow_1_59" result="shape"/>
</filter>
</defs>
</svg>
